<?xml version="1.0" encoding="UTF-8" standalone="no"?>
<!-- Created with Inkscape (http://www.inkscape.org/) -->

<svg
   xmlns:dc="http://purl.org/dc/elements/1.1/"
   xmlns:cc="http://creativecommons.org/ns#"
   xmlns:rdf="http://www.w3.org/1999/02/22-rdf-syntax-ns#"
   xmlns:svg="http://www.w3.org/2000/svg"
   xmlns="http://www.w3.org/2000/svg"
   xmlns:sodipodi="http://sodipodi.sourceforge.net/DTD/sodipodi-0.dtd"
   xmlns:inkscape="http://www.inkscape.org/namespaces/inkscape"
   width="210mm"
   height="297mm"
   viewBox="0 0 744.09448819 1052.3622047"
   id="svg2"
   version="1.1"
   inkscape:version="0.91 r13725"
   sodipodi:docname="GLP_bucket.svg"
   inkscape:export-filename="C:\Users\erica\Desktop\GLP_bucket.png"
   inkscape:export-xdpi="90"
   inkscape:export-ydpi="90">
  <defs
     id="defs4" />
  <sodipodi:namedview
     id="base"
     pagecolor="#ffffff"
     bordercolor="#666666"
     borderopacity="1.0"
     inkscape:pageopacity="0.0"
     inkscape:pageshadow="2"
     inkscape:zoom="0.80174324"
     inkscape:cx="345.81085"
     inkscape:cy="502.89637"
     inkscape:document-units="px"
     inkscape:current-layer="layer1"
     showgrid="false"
     inkscape:window-width="1366"
     inkscape:window-height="705"
     inkscape:window-x="-8"
     inkscape:window-y="-8"
     inkscape:window-maximized="1" />
  <metadata
     id="metadata7">
    <rdf:RDF>
      <cc:Work
         rdf:about="">
        <dc:format>image/svg+xml</dc:format>
        <dc:type
           rdf:resource="http://purl.org/dc/dcmitype/StillImage" />
        <dc:title></dc:title>
      </cc:Work>
    </rdf:RDF>
  </metadata>
  <g
     inkscape:label="Layer 1"
     inkscape:groupmode="layer"
     id="layer1">
    <path
       style="fill:none;fill-rule:evenodd;stroke:#4d4d4d;stroke-width:1px;stroke-linecap:butt;stroke-linejoin:miter;stroke-opacity:1"
       d="m 465.71429,476.64792 c 0,8.28427 -15.35024,15.78427 -40.16821,21.2132 -11.62619,2.54323 -40.50701,6.13389 -40.50701,6.13389 -9.907,-28.539 -37.3589,-18.73678 -39.2955,2.42001 0,0 -11.35644,0.2329 -17.17213,0.2329 -20.96552,0 -40.83224,-1.02911 -58.6021,-2.869 -46.42712,-4.80707 -78.54075,-15.14866 -78.54075,-27.131 0,-13.87552 95.16092,-28.18121 95.16092,-28.18121 7.5195,-26.91038 28.4826,-21.73358 35.99607,-1.79073 0,0 3.98022,-0.0281 5.98586,-0.0281 75.7419,0 137.14285,13.43146 137.14285,30 z"
       id="path3336"
       inkscape:connector-curvature="0"
       sodipodi:nodetypes="sssssssssss" />
    <path
       style="fill:none;fill-rule:evenodd;stroke:#4d4d4d;stroke-width:1px;stroke-linecap:butt;stroke-linejoin:miter;stroke-opacity:1"
       d="m 191.59072,477.03401 c 17.28167,152.39291 26.19694,237.84879 29.69848,267.94829 0.31689,2.72403 -2.00794,0.39773 -3.94416,6.05658 -0.9081,6.70084 5.77879,12.80479 11.07646,15.01325"
       id="path3353"
       inkscape:connector-curvature="0"
       sodipodi:nodetypes="cscc" />
    <path
       style="fill:none;fill-rule:evenodd;stroke:#4d4d4d;stroke-width:1px;stroke-linecap:butt;stroke-linejoin:miter;stroke-opacity:1"
       d="m 465.5893,477.86474 -33.44564,269.48819 c 3.56278,7.26609 1.57024,12.31006 -3.48106,16.72077"
       id="path3355"
       inkscape:connector-curvature="0"
       sodipodi:nodetypes="ccc" />
    <path
       style="fill:none;fill-rule:evenodd;stroke:#4d4d4d;stroke-width:1px;stroke-linecap:butt;stroke-linejoin:miter;stroke-opacity:1"
       d="m 307.01097,438.85754 c 323.44008,-201.81567 57.84533,58.92752 57.84533,58.92752"
       id="path3357"
       inkscape:connector-curvature="0"
       sodipodi:nodetypes="cc" />
    <ellipse
       style="fill:none;stroke:#4d4d4d;stroke-width:1.29458356"
       id="path3360"
       cx="304.21362"
       cy="443.92737"
       rx="7.4381819"
       ry="7.0389466" />
    <ellipse
       style="fill:none;stroke:#4d4d4d;stroke-width:1.36016881"
       id="path3360-9"
       cx="365.30048"
       cy="500.6188"
       rx="7.4053893"
       ry="7.804625" />
    <path
       style="fill:none;fill-rule:evenodd;stroke:#4d4d4d;stroke-width:1px;stroke-linecap:butt;stroke-linejoin:miter;stroke-opacity:1"
       d="m 305.82708,445.93424 c 1.41273,0.55784 2.85751,-0.18063 3.54824,-0.61075 320.23005,-199.41372 58.6314,56.50591 58.6314,56.50591"
       id="path3357-7"
       inkscape:connector-curvature="0"
       sodipodi:nodetypes="csc" />
    <path
       style="fill:none;fill-rule:evenodd;stroke:#666666;stroke-width:0.85240293px;stroke-linecap:butt;stroke-linejoin:miter;stroke-opacity:1"
       d="m 431.73257,746.54786 c 10e-6,15.82032 -46.72333,28.64523 -104.35949,28.64523 -57.63616,0 -105.6607,-12.82491 -105.66069,-28.64523"
       id="path3336-5-8"
       inkscape:connector-curvature="0"
       sodipodi:nodetypes="csc" />
    <path
       style="fill:none;fill-rule:evenodd;stroke:#666666;stroke-width:0.85240293px;stroke-linecap:butt;stroke-linejoin:miter;stroke-opacity:1"
       d="m 432.25834,759.39368 c -5.509,12.47557 -47.70708,26.48098 -105.34324,26.48098 -57.63616,0 -100.1858,-15.88563 -106.30723,-25.86276"
       id="path3336-5-8-3"
       inkscape:connector-curvature="0"
       sodipodi:nodetypes="csc" />
    <path
       style="fill:none;fill-rule:evenodd;stroke:#4d4d4d;stroke-width:1px;stroke-linecap:butt;stroke-linejoin:miter;stroke-opacity:1"
       d="m 307.08532,438.8245 c -1.71407,1.47167 -3.08104,2.1419 -3.38727,3.50511 -0.24805,1.10422 -0.16537,2.57811 2.40726,3.68142"
       id="path3423"
       inkscape:connector-curvature="0"
       sodipodi:nodetypes="csc" />
    <path
       style="fill:none;fill-rule:evenodd;stroke:#4d4d4d;stroke-width:1px;stroke-linecap:butt;stroke-linejoin:miter;stroke-opacity:1"
       d="m 368.17083,501.73929 c -2.15082,1.80432 -6.81463,-0.36946 -2.66223,-4.64273"
       id="path3425"
       inkscape:connector-curvature="0"
       sodipodi:nodetypes="cc" />
    <path
       style="fill:none;fill-rule:evenodd;stroke:#000000;stroke-width:1px;stroke-linecap:butt;stroke-linejoin:miter;stroke-opacity:1"
       d="m 459.41172,365.6145 c 3.56152,0.6396 6.5149,2.16659 7.49627,5.62091"
       id="path3427"
       inkscape:connector-curvature="0"
       sodipodi:nodetypes="cc" />
  </g>
</svg>
